<svg xmlns="http://www.w3.org/2000/svg" viewBox="0 0 271.36 271.36">
  <defs>
    <style>
      .cls-1, .cls-2 {
        fill: none;
      }

      .cls-1, .cls-2, .cls-3, .cls-4 {
        stroke: #231f20;
        stroke-miterlimit: 10;
      }

      .cls-2 {
        stroke-width: 3px;
      }

      .cls-3 {
        fill: #fff;
        stroke-width: 2px;
      }

      .cls-4 {
        fill: #fbb040;
      }

      .cls-5 {
        font-size: 12px;
        fill: #231f20;
        font-family: MyriadPro-Regular, Myriad Pro;
      }
    </style>
  </defs>
  <g id="Layer_5" data-name="Layer 5">
    <circle class="cls-1" cx="135.68" cy="135.68" r="135.18"/>
  </g>
  <g id="Layer_2" data-name="Layer 2">
    <path class="cls-2" d="M302.91,153.33l4.34,14.52a13.17,13.17,0,0,0,20.58,6.72l12.24-9.27c10.45-7.92,24.8,2.64,20.34,15l-4.88,13.52a13.18,13.18,0,0,0,12.75,17.65l14.68-.4c13.18-.36,18.65,16.72,7.72,24.09L379,243a13.18,13.18,0,0,0,0,21.85l11.68,7.87c10.93,7.37,5.46,24.45-7.72,24.09l-14.68-.4a13.18,13.18,0,0,0-12.75,17.65l4.88,13.52c4.46,12.34-9.89,22.91-20.34,15l-12.24-9.27A13.18,13.18,0,0,0,307.25,340l-4.34,14.52c-3.75,12.53-21.5,12.53-25.25,0L273.32,340a13.18,13.18,0,0,0-20.58-6.73l-12.23,9.27c-10.46,7.93-24.81-2.64-20.35-15L225,314.08a13.17,13.17,0,0,0-12.75-17.65l-14.68.4c-13.18.36-18.65-16.72-7.72-24.09l11.68-7.87a13.18,13.18,0,0,0,0-21.85l-11.68-7.88c-10.93-7.37-5.46-24.45,7.72-24.09l14.68.4A13.17,13.17,0,0,0,225,193.8l-4.88-13.52c-4.46-12.34,9.89-22.9,20.35-15l12.23,9.27a13.17,13.17,0,0,0,20.58-6.72l4.34-14.52C281.41,140.8,299.16,140.8,302.91,153.33Z" transform="translate(-154.6 -125.91)"/>
  </g>
  <g id="Layer_3" data-name="Layer 3">
    <polygon class="cls-3" points="135.68 14.07 145 74.39 172.5 19.91 162.73 80.14 205.72 36.83 177.81 91.1 232.08 63.19 188.77 106.18 249.01 96.41 194.53 123.91 254.84 133.23 194.53 142.55 249.01 170.05 188.77 160.28 232.08 203.27 177.81 175.36 205.72 229.63 162.73 186.31 172.5 246.56 145 192.07 135.68 252.39 126.36 192.07 98.86 246.56 108.63 186.31 65.64 229.63 93.55 175.36 39.28 203.27 82.6 160.28 22.36 170.05 76.84 142.55 16.52 133.23 76.84 123.91 22.36 96.41 82.6 106.18 39.28 63.19 93.55 91.1 65.64 36.83 108.63 80.14 98.86 19.91 126.36 74.39 135.68 14.07"/>
  </g>
  <g id="Layer_4" data-name="Layer 4">
    <polygon class="cls-4" points="123.63 133.23 131.52 132.01 124.39 128.41 132.27 129.69 126.6 124.06 133.71 127.72 130.05 120.61 135.68 126.28 134.4 118.4 138 125.53 139.22 117.63 140.44 125.53 144.04 118.4 142.76 126.28 148.39 120.61 144.74 127.72 151.84 124.06 146.17 129.69 154.06 128.41 146.92 132.01 154.82 133.23 146.92 134.45 154.06 138.05 146.17 136.77 151.84 142.4 144.74 138.74 148.39 145.85 142.76 140.18 144.04 148.06 140.44 140.93 139.22 148.83 138 140.93 134.4 148.06 135.68 140.18 130.05 145.85 133.71 138.74 126.6 142.4 132.27 136.77 124.39 138.05 131.52 134.45 123.63 133.23"/>
  </g>
  <g id="Layer_1" data-name="Layer 1">
    <text class="cls-5" transform="translate(95.96 137.37)">A</text>
    <text class="cls-5" transform="translate(169.25 137.35)">B</text>
  </g>
</svg>
