<svg xmlns="http://www.w3.org/2000/svg" viewBox="0 0 271.36 271.36">
  <defs>
    <style>
      .cls-1, .cls-2 {
        fill: none;
      }

      .cls-1, .cls-2, .cls-3, .cls-4 {
        stroke: #231f20;
        stroke-miterlimit: 10;
      }

      .cls-2 {
        stroke-width: 3px;
      }

      .cls-3 {
        fill: #fff;
        stroke-width: 2px;
      }

      .cls-4 {
        fill: #fbb040;
      }

      .cls-5 {
        font-size: 12px;
        fill: #231f20;
        font-family: MyriadPro-Regular, Myriad Pro;
      }
    </style>
  </defs>
  <g id="Layer_5" data-name="Layer 5">
    <circle class="cls-1" cx="135.68" cy="135.68" r="135.18"/>
  </g>
  <g id="Layer_2" data-name="Layer 2">
    <path class="cls-2" d="M302.91,153.33l4.34,14.52a13.17,13.17,0,0,0,20.58,6.72l12.24-9.27c10.45-7.92,24.8,2.64,20.34,15l-4.88,13.52a13.18,13.18,0,0,0,12.75,17.65l14.68-.4c13.18-.36,18.65,16.72,7.72,24.09L379,243a13.18,13.18,0,0,0,0,21.85l11.68,7.87c10.93,7.37,5.46,24.45-7.72,24.09l-14.68-.4a13.18,13.18,0,0,0-12.75,17.65l4.88,13.52c4.46,12.34-9.89,22.91-20.34,15l-12.24-9.27A13.18,13.18,0,0,0,307.25,340l-4.34,14.52c-3.75,12.53-21.5,12.53-25.25,0L273.32,340a13.18,13.18,0,0,0-20.58-6.73l-12.23,9.27c-10.46,7.93-24.81-2.64-20.35-15L225,314.08a13.17,13.17,0,0,0-12.75-17.65l-14.68.4c-13.18.36-18.65-16.72-7.72-24.09l11.68-7.87a13.18,13.18,0,0,0,0-21.85l-11.68-7.88c-10.93-7.37-5.46-24.45,7.72-24.09l14.68.4A13.17,13.17,0,0,0,225,193.8l-4.88-13.52c-4.46-12.34,9.89-22.9,20.35-15l12.23,9.27a13.17,13.17,0,0,0,20.58-6.72l4.34-14.52C281.41,140.8,299.16,140.8,302.91,153.33Z" transform="translate(-154.6 -125.91)"/>
  </g>
  <g id="Layer_3" data-name="Layer 3">
    <polygon class="cls-3" points="135.68 14.07 145 74.39 172.5 19.91 162.73 80.14 205.72 36.83 177.81 91.1 232.08 63.19 188.77 106.18 249.01 96.41 194.53 123.91 254.84 133.23 194.53 142.55 249.01 170.05 188.77 160.28 232.08 203.27 177.81 175.36 205.72 229.63 162.73 186.31 172.5 246.56 145 192.07 135.68 252.39 126.36 192.07 98.86 246.56 108.63 186.31 65.64 229.63 93.55 175.36 39.28 203.27 82.6 160.28 22.36 170.05 76.84 142.55 16.52 133.23 76.84 123.91 22.36 96.41 82.6 106.18 39.28 63.19 93.55 91.1 65.64 36.83 108.63 80.14 98.86 19.91 126.36 74.39 135.68 14.07"/>
  </g>
  <g id="Layer_4" data-name="Layer 4">
    <polygon class="cls-4" points="121.44 133.23 129.33 132.01 122.2 128.41 130.09 129.69 124.42 124.06 131.52 127.72 127.87 120.61 133.49 126.28 132.21 118.4 135.81 125.53 137.03 117.63 138.25 125.53 141.85 118.4 140.57 126.28 146.2 120.61 142.55 127.72 149.65 124.06 143.98 129.69 151.87 128.41 144.74 132.01 152.63 133.23 144.74 134.45 151.87 138.05 143.98 136.77 149.65 142.4 142.55 138.74 146.2 145.85 140.57 140.18 141.85 148.06 138.25 140.93 137.03 148.83 135.81 140.93 132.21 148.06 133.49 140.18 127.87 145.85 131.52 138.74 124.42 142.4 130.09 136.77 122.2 138.05 129.33 134.45 121.44 133.23"/>
  </g>
  <g id="Layer_1" data-name="Layer 1">
    <text class="cls-5" transform="translate(95.96 137.37)">A</text>
    <text class="cls-5" transform="translate(169.25 137.35)">B</text>
  </g>
</svg>
