<svg id="Layer_1" data-name="Layer 1" xmlns="http://www.w3.org/2000/svg" viewBox="0 0 251.41 251.41">
  <defs>
    <style>
      .cls-1, .cls-2 {
        fill: #fff;
      }

      .cls-1, .cls-2, .cls-3 {
        stroke: #231f20;
        stroke-miterlimit: 10;
      }

      .cls-1 {
        stroke-width: 3px;
      }

      .cls-2 {
        stroke-width: 2px;
      }

      .cls-3 {
        fill: #fbb040;
      }

      .cls-4 {
        font-size: 12px;
        fill: #231f20;
        font-family: MyriadPro-Regular, Myriad Pro;
      }
    </style>
  </defs>
  <path class="cls-1" d="M302.91,153.33l4.34,14.52a13.17,13.17,0,0,0,20.58,6.72l12.24-9.27c10.45-7.92,24.8,2.64,20.34,15l-4.88,13.52a13.18,13.18,0,0,0,12.75,17.65l14.68-.4c13.18-.36,18.65,16.72,7.72,24.09L379,243a13.18,13.18,0,0,0,0,21.85l11.68,7.87c10.93,7.37,5.46,24.45-7.72,24.09l-14.68-.4a13.18,13.18,0,0,0-12.75,17.65l4.88,13.52c4.46,12.34-9.89,22.91-20.34,15l-12.24-9.27A13.18,13.18,0,0,0,307.25,340l-4.34,14.52c-3.75,12.53-21.5,12.53-25.25,0L273.32,340a13.18,13.18,0,0,0-20.58-6.73l-12.23,9.27c-10.46,7.93-24.81-2.64-20.35-15L225,314.08a13.17,13.17,0,0,0-12.75-17.65l-14.68.4c-13.18.36-18.65-16.72-7.72-24.09l11.68-7.87a13.18,13.18,0,0,0,0-21.85l-11.68-7.88c-10.93-7.37-5.46-24.45,7.72-24.09l14.68.4A13.17,13.17,0,0,0,225,193.8l-4.88-13.52c-4.46-12.34,9.89-22.9,20.35-15l12.23,9.27a13.17,13.17,0,0,0,20.58-6.72l4.34-14.52C281.41,140.8,299.16,140.8,302.91,153.33Z" transform="translate(-164.58 -133.44)"/>
  <polygon class="cls-2" points="125.7 6.55 135.03 66.86 162.53 12.38 152.75 72.62 195.74 29.3 167.83 83.58 222.11 55.67 178.79 98.66 239.03 88.88 184.55 116.39 244.86 125.7 184.55 135.03 239.03 162.53 178.79 152.75 222.11 195.74 167.83 167.83 195.74 222.11 152.75 178.79 162.53 239.03 135.03 184.55 125.7 244.86 116.39 184.55 88.88 239.03 98.66 178.79 55.67 222.11 83.58 167.83 29.3 195.74 72.62 152.75 12.38 162.53 66.86 135.03 6.55 125.7 66.86 116.39 12.38 88.88 72.62 98.66 29.3 55.67 83.58 83.58 55.67 29.3 98.66 72.62 88.88 12.38 116.39 66.86 125.7 6.55"/>
  <polygon class="cls-3" points="113.65 125.7 121.54 124.48 114.41 120.89 122.3 122.17 116.63 116.54 123.73 120.19 120.08 113.09 125.7 118.76 124.43 110.87 128.03 118 129.25 110.11 130.47 118 134.06 110.87 132.79 118.76 138.41 113.09 134.76 120.19 141.86 116.54 136.19 122.17 144.08 120.89 136.95 124.48 144.84 125.7 136.95 126.92 144.08 130.53 136.19 129.25 141.86 134.87 134.76 131.22 138.41 138.32 132.79 132.65 134.06 140.54 130.47 133.41 129.25 141.3 128.03 133.41 124.43 140.54 125.7 132.65 120.08 138.32 123.73 131.22 116.63 134.87 122.3 129.25 114.41 130.53 121.54 126.92 113.65 125.7"/>
  <text class="cls-4" transform="translate(85.99 129.84)">A</text>
  <text class="cls-4" transform="translate(159.28 129.82)">B</text>
</svg>
